<?xml version="1.0" standalone="no"?>
<!DOCTYPE svg PUBLIC "-//W3C//DTD SVG 20010904//EN"
 "http://www.w3.org/TR/2001/REC-SVG-20010904/DTD/svg10.dtd">
<svg version="1.0" xmlns="http://www.w3.org/2000/svg"
 width="700.000000pt" height="700.000000pt" viewBox="0 0 700.000000 700.000000"
 preserveAspectRatio="xMidYMid meet">
<metadata>
Created by potrace 1.14, written by Peter Selinger 2001-2017
</metadata>
<g transform="translate(0.000000,700.000000) scale(0.100000,-0.100000)"
fill="#000000" stroke="none">
<path d="M3857 6124 c-1 -1 -39 -4 -85 -8 -577 -45 -1126 -425 -1400 -971 -47
-94 -102 -242 -127 -340 -10 -38 -19 -71 -20 -72 0 -1 -23 5 -50 13 -137 42
-261 59 -430 59 -290 0 -508 -48 -750 -165 -144 -70 -240 -131 -360 -232 -326
-272 -540 -626 -605 -998 -6 -36 -14 -76 -17 -90 -10 -42 -12 -831 -2 -900 9
-62 15 -100 26 -165 8 -49 53 -196 80 -265 53 -135 190 -371 262 -454 127
-145 178 -195 281 -278 68 -55 215 -158 226 -158 2 0 21 -10 42 -23 138 -86
417 -173 622 -195 78 -8 4201 -7 4280 1 173 18 282 49 445 130 256 126 488
366 609 628 36 79 89 244 101 319 11 70 15 767 4 845 -13 95 -44 212 -80 306
-108 279 -370 558 -656 697 -89 43 -218 88 -268 93 -2 0 -19 4 -36 9 -39 12
-182 24 -267 23 -53 0 -62 2 -57 16 48 151 65 284 61 476 -2 94 -7 181 -10
195 -3 13 -8 42 -12 65 -27 185 -115 418 -219 580 -19 30 -35 57 -35 60 0 3
-6 13 -14 22 -8 10 -41 52 -74 93 -272 342 -682 595 -1067 656 -20 3 -46 7
-56 9 -59 12 -332 27 -342 19z"/>
</g>
</svg>
