<?xml version="1.0"?>
<svg version="1.1" xmlns="http://www.w3.org/2000/svg" width="400" height="200" style="border: dashed 2px #aaa">
    <path fill="#f2f4f5"
          d="M170.23927734375,104.18359375q-1.326171875,0-2.078125,0.8408203125t-0.861328125,2.3857421875l5.8515625,0q-0.02734375-1.544921875-0.806640625-2.3857421875t-2.10546875-0.8408203125z M170.82716796875,117.0625q-3.69140625,0-5.76953125-2.037109375t-2.078125-5.76953125q0-3.841796875,1.9208984375-5.9404296875t5.3115234375-2.0986328125q3.240234375,0,5.044921875,1.845703125t1.8046875,5.099609375l0,2.0234375l-9.857421875,0q0.068359375,1.77734375,1.052734375,2.775390625t2.76171875,0.998046875q1.380859375,0,2.611328125-0.287109375t2.5703125-0.916015625l0,3.2265625q-1.09375,0.546875-2.337890625,0.8134765625t-3.03515625,0.2666015625z M181.1462890625,123.515625q-1.599609375,0-2.748046875-0.341796875l0-3.28125q0.95703125,0.259765625,1.955078125,0.259765625q1.052734375,0,1.5380859375-0.587890625t0.4853515625-1.736328125l0-16.32421875l4.169921875,0l0,16.939453125q0,2.43359375-1.408203125,3.7529296875t-3.9921875,1.3193359375z M182.1990234375,97.552734375q0-2.037109375,2.26953125-2.037109375t2.26953125,2.037109375q0,0.970703125-0.5673828125,1.5107421875t-1.7021484375,0.5400390625q-2.26953125,0-2.26953125-2.05078125z M201.37751953125,101.216796875q0.84765625,0,1.408203125,0.123046875l-0.314453125,3.91015625q-0.505859375-0.13671875-1.23046875-0.13671875q-1.99609375,0-3.1103515625,1.025390625t-1.1142578125,2.87109375l0,7.779296875l-4.169921875,0l0-15.28515625l3.158203125,0l0.615234375,2.5703125l0.205078125,0q0.7109375-1.28515625,1.9208984375-2.0712890625t2.6318359375-0.7861328125z M217.192734375,116.7890625l-0.806640625-2.078125l-0.109375,0q-1.052734375,1.326171875-2.1669921875,1.8388671875t-2.9052734375,0.5126953125q-2.201171875,0-3.4658203125-1.2578125t-1.2646484375-3.58203125q0-2.43359375,1.7021484375-3.5888671875t5.1337890625-1.2783203125l2.65234375-0.08203125l0-0.669921875q0-2.32421875-2.37890625-2.32421875q-1.83203125,0-4.306640625,1.107421875l-1.380859375-2.81640625q2.638671875-1.380859375,5.8515625-1.380859375q3.076171875,0,4.716796875,1.33984375t1.640625,4.07421875l0,10.185546875l-2.912109375,0z M215.962265625,109.70703125l-1.61328125,0.0546875q-1.818359375,0.0546875-2.70703125,0.65625t-0.888671875,1.83203125q0,1.763671875,2.0234375,1.763671875q1.44921875,0,2.3173828125-0.833984375t0.8681640625-2.21484375l0-1.2578125z M229.95912109375,116.7890625l-5.82421875-15.28515625l4.361328125,0l2.953125,8.708984375q0.4921875,1.654296875,0.615234375,3.130859375l0.08203125,0q0.068359375-1.3125,0.615234375-3.130859375l2.939453125-8.708984375l4.361328125,0l-5.82421875,15.28515625l-4.279296875,0z M243.5868359375,114.833984375q0-1.1484375,0.615234375-1.736328125t1.791015625-0.587890625q1.134765625,0,1.7568359375,0.6015625t0.6220703125,1.72265625q0,1.080078125-0.62890625,1.7021484375t-1.75,0.6220703125q-1.1484375,0-1.77734375-0.6083984375t-0.62890625-1.7158203125z M257.21455078125,108.982421875l-4.921875-7.478515625l4.73046875,0l2.966796875,4.8671875l2.994140625-4.8671875l4.73046875,0l-4.9765625,7.478515625l5.208984375,7.806640625l-4.744140625,0l-3.212890625-5.236328125l-3.2265625,5.236328125l-4.73046875,0z M270.00828125,101.50390625l4.56640625,0l2.884765625,8.599609375q0.369140625,1.12109375,0.505859375,2.65234375l0.08203125,0q0.150390625-1.408203125,0.587890625-2.65234375l2.830078125-8.599609375l4.470703125,0l-6.466796875,17.240234375q-0.888671875,2.392578125-2.5361328125,3.58203125t-3.8486328125,1.189453125q-1.080078125,0-2.119140625-0.232421875l0-3.30859375q0.751953125,0.177734375,1.640625,0.177734375q1.107421875,0,1.9345703125-0.6767578125t1.2919921875-2.0439453125l0.24609375-0.751953125z M300.68482421875,116.7890625l-12.072265625,0l0-2.4609375l7.08203125-9.638671875l-6.658203125,0l0-3.185546875l11.40234375,0l0,2.70703125l-6.890625,9.392578125l7.13671875,0l0,3.185546875z"/>
</svg>
